<svg width="91" height="38" viewBox="0 0 91 38" fill="none" xmlns="http://www.w3.org/2000/svg">
<path d="M7.5 1.25L9.43125 5.1625L13.75 5.79375L10.625 8.8375L11.3625 13.1375L7.5 11.1063L3.6375 13.1375L4.375 8.8375L1.25 5.79375L5.56875 5.1625L7.5 1.25Z" fill="#FFD000"/>
<path d="M26.5 1.25L28.4313 5.1625L32.75 5.79375L29.625 8.8375L30.3625 13.1375L26.5 11.1063L22.6375 13.1375L23.375 8.8375L20.25 5.79375L24.5687 5.1625L26.5 1.25Z" fill="#FFD000"/>
<path d="M45.5 1.25L47.4313 5.1625L51.75 5.79375L48.625 8.8375L49.3625 13.1375L45.5 11.1063L41.6375 13.1375L42.375 8.8375L39.25 5.79375L43.5687 5.1625L45.5 1.25Z" fill="#FFD000"/>
<path d="M64.5 1.25L66.4313 5.1625L70.75 5.79375L67.625 8.8375L68.3625 13.1375L64.5 11.1063L60.6375 13.1375L61.375 8.8375L58.25 5.79375L62.5687 5.1625L64.5 1.25Z" fill="#FFD000"/>
<path d="M83.5 1.25L85.4313 5.1625L89.75 5.79375L86.625 8.8375L87.3625 13.1375L83.5 11.1063L79.6375 13.1375L80.375 8.8375L77.25 5.79375L81.5687 5.1625L83.5 1.25Z" fill="#FFD000"/>
<path d="M7.5 21.3796L8.9829 24.3838C9.05567 24.5312 9.19626 24.6335 9.35894 24.6572L12.6758 25.1421L10.2761 27.4793C10.1582 27.5942 10.1044 27.7598 10.1322 27.922L10.6984 31.2233L7.73273 29.6637C7.58703 29.5871 7.41297 29.5871 7.26727 29.6637L4.30159 31.2233L4.8678 27.922C4.89563 27.7598 4.8418 27.5942 4.72387 27.4793L2.32421 25.1421L5.64106 24.6572C5.80374 24.6335 5.94433 24.5312 6.0171 24.3838L7.5 21.3796Z" stroke="#FFD000" stroke-linecap="round" stroke-linejoin="round"/>
<path d="M26.5 21.3796L27.9829 24.3838C28.0557 24.5312 28.1963 24.6335 28.3589 24.6572L31.6758 25.1421L29.2761 27.4793C29.1582 27.5942 29.1044 27.7598 29.1322 27.922L29.6984 31.2233L26.7327 29.6637C26.587 29.5871 26.413 29.5871 26.2673 29.6637L23.3016 31.2233L23.8678 27.922C23.8956 27.7598 23.8418 27.5942 23.7239 27.4793L21.3242 25.1421L24.6411 24.6572C24.8037 24.6335 24.9443 24.5312 25.0171 24.3838L26.5 21.3796Z" stroke="#FFD000" stroke-linecap="round" stroke-linejoin="round"/>
<path d="M45.5 21.3796L46.9829 24.3838C47.0557 24.5312 47.1963 24.6335 47.3589 24.6572L50.6758 25.1421L48.2761 27.4793C48.1582 27.5942 48.1044 27.7598 48.1322 27.922L48.6984 31.2233L45.7327 29.6637C45.587 29.5871 45.413 29.5871 45.2673 29.6637L42.3016 31.2233L42.8678 27.922C42.8956 27.7598 42.8418 27.5942 42.7239 27.4793L40.3242 25.1421L43.6411 24.6572C43.8037 24.6335 43.9443 24.5312 44.0171 24.3838L45.5 21.3796Z" stroke="#FFD000" stroke-linecap="round" stroke-linejoin="round"/>
<path d="M64.5 21.3796L65.9829 24.3838C66.0557 24.5312 66.1963 24.6335 66.3589 24.6572L69.6758 25.1421L67.2761 27.4793C67.1582 27.5942 67.1044 27.7598 67.1322 27.922L67.6984 31.2233L64.7327 29.6637C64.587 29.5871 64.413 29.5871 64.2673 29.6637L61.3016 31.2233L61.8678 27.922C61.8956 27.7598 61.8418 27.5942 61.7239 27.4793L59.3242 25.1421L62.6411 24.6572C62.8037 24.6335 62.9443 24.5312 63.0171 24.3838L64.5 21.3796Z" stroke="#FFD000" stroke-linecap="round" stroke-linejoin="round"/>
<path d="M83.5 21.3796L84.9829 24.3838C85.0557 24.5312 85.1963 24.6335 85.3589 24.6572L88.6758 25.1421L86.2761 27.4793C86.1582 27.5942 86.1044 27.7598 86.1322 27.922L86.6984 31.2233L83.7327 29.6637C83.587 29.5871 83.413 29.5871 83.2673 29.6637L80.3016 31.2233L80.8678 27.922C80.8956 27.7598 80.8418 27.5942 80.7239 27.4793L78.3242 25.1421L81.6411 24.6572C81.8037 24.6335 81.9443 24.5312 82.0171 24.3838L83.5 21.3796Z" stroke="#FFD000" stroke-linecap="round" stroke-linejoin="round"/>
</svg>
